/* XPM */
static const char *clear_xpm[] = {
/* width height num_colors chars_per_pixel */
"    32    32       12            1",
/* colors */
". c #000000",
"# c #004040",
"a c #303030",
"b c #400000",
"c c #404000",
"d c #585858",
"e c #808080",
"f c #a0a0a4",
"g c #bdbdbd",
"h c #c0c0c0",
"i c #dcdcdc",
"j c #ffffff",
/* pixels */
"gggggggggggggggggggggggggggggggg",
"gggggggggggggg..gggggggggggggggg",
"gggggggggg....ficggggggggggggggg",
"ggggggg...fdad#ai......ggggggggg",
"gggg...fhjjidfbc#f.fffe...gggggg",
"ggg.fhjjjjihc#dhef.fhhhffe.ggggg",
"ggg.#jjjjjihhhhhe..ehhhfff.ggggg",
"ggg.#dffjjjjiihhcadehhfddd.ggggg",
"ggg.iiiffhfjjjjjhhhfdddddd.ggggg",
"ggg.#fjjiiffeeeeddddeeeddd.ggggg",
"gggg.#eeiiiiifffffffeee...gggggg",
"gggg.ffffffiifffffffddddd.gggggg",
"gggg.fffjfffeeeeddddeed.d.gggggg",
"gggg.fefiiiifhffeeeeded.d.gggggg",
"gggg.fefijhfhifefff.ded.d.gggggg",
"gggg.fefijeffifeefe.ded.d.gggggg",
"gggg.fefijeffifeefe.ded.d.gggggg",
"gggg.fefijeffifeefe.ded.d.gggggg",
"gggg.fefijeffifeefe.ded.d.gggggg",
"gggg.fefijeffifeefe.ded.d.gggggg",
"gggg.fefijeffifeefe.ded.d.gggggg",
"gggg.fefijeffifeefe.ded.d.gggggg",
"gggg.fefijeffifeefe.ded.d.gggggg",
"gggg.fefijeffifeefe.ded.d.gggggg",
"gggg.fefijeffifeefe.ded.d.gggggg",
"gggg.fefijeffifeefe.ded.d.gggggg",
"gggg.fffijeffifeefe.deddd.gggggg",
"gggg.ffiijeffifeefeddedd#.gggggg",
"gggg.eiijjjeiifdffedded#..gggggg",
"ggggg..fjjiiiiffffedddd..ggggggg",
"ggggggg...fhhfffffdd...ggggggggg",
"gggggggggg..........gggggggggggg"
};
