/* XPM */
static const char *start_xpm[] = {
/* width height num_colors chars_per_pixel */
"    32    32      227            2",
/* colors */
".. c #040204",
".# c #848684",
".a c #c4c2b4",
".b c #843a04",
".c c #444244",
".d c #ece2cc",
".e c #fca234",
".f c #c45e04",
".g c #bca27c",
".h c #646264",
".i c #e4c69c",
".j c #847254",
".k c #c4a684",
".l c #443e34",
".m c #a48e6c",
".n c #f4f2e4",
".o c #24261c",
".p c #a44a04",
".q c #c4825c",
".r c #644634",
".s c #b4b2ac",
".t c #747274",
".u c #844e2c",
".v c #ece6dc",
".w c #c4b6a4",
".x c #a49274",
".y c #343634",
".z c #fcd69c",
".A c #b4aa9c",
".B c #8c8e8c",
".C c #545254",
".D c #f4f2ec",
".E c #fcb67c",
".F c #e4965c",
".G c #e46634",
".H c #141614",
".I c #d4c2a4",
".J c #746a5c",
".K c #fcc2a4",
".L c #342a1c",
".M c #fc9204",
".N c #a45e2c",
".O c #94521c",
".P c #a4560c",
".Q c #645e54",
".R c #ec7a04",
".S c #f4deac",
".T c #5c462c",
".U c #bcaa8c",
".V c #d4be9c",
".W c #fcfaf4",
".X c #d4cab4",
".Y c #1c0a04",
".Z c #6c6a6c",
".0 c #e4caa4",
".1 c #2c2a1c",
".2 c #74462c",
".3 c #84562c",
".4 c #f4eee4",
".5 c #c4beb4",
".6 c #a49a84",
".7 c #f4ba7c",
".8 c #dc966c",
".9 c #948674",
"#. c #fc8a04",
"## c #f4eab4",
"#a c #fcb26c",
"#b c #c4ae94",
"#c c #f4e6d4",
"#d c #9c8e74",
"#e c #fc7e04",
"#f c #140604",
"#g c #b4a28c",
"#h c #6c625c",
"#i c #8c7e64",
"#j c #f4ae84",
"#k c #e4decc",
"#l c #ac5204",
"#m c #e48a4c",
"#n c #7c7a7c",
"#o c #ccba9c",
"#p c #fcd2b4",
"#q c #bcae9c",
"#r c #dcc6a4",
"#s c #ac723c",
"#t c #e4ceb4",
"#u c #ec9e74",
"#v c #8c8a8c",
"#w c #8c4204",
"#x c #4c4a34",
"#y c #7c3a04",
"#z c #fcfecc",
"#A c #2c221c",
"#B c #ac4e04",
"#C c #d48264",
"#D c #bcb2a4",
"#E c #a49684",
"#F c #b4aeac",
"#G c #5c5a5c",
"#H c #fcf2ec",
"#I c #fcb28c",
"#J c #7c6e5c",
"#K c #fcce9c",
"#L c #3c2e24",
"#M c #bc9e71",
"#N c #fc922c",
"#O c #bc622c",
"#P c #b45604",
"#Q c #f47a08",
"#R c #fcdeb8",
"#S c #544e44",
"#T c #fcfefc",
"#U c #e4ceaa",
"#V c #8c5a2c",
"#W c #e49e7c",
"#X c #f4eadb",
"#Y c #9c9284",
"#Z c #f4ae90",
"#0 c #c47e5c",
"#1 c #bc824c",
"#2 c #e47634",
"#3 c #e46e24",
"#4 c #b48e6c",
"#5 c #7c5a4c",
"#6 c #744e2c",
"#7 c #fcba9c",
"#8 c #cccacc",
"#9 c #f4722c",
"a. c #c46224",
"a# c #e47a54",
"aa c #ac663c",
"ab c #fce2cc",
"ac c #945634",
"ad c #fceacc",
"ae c #3c3e3c",
"af c #ec9e54",
"ag c #843e1c",
"ah c #fccab0",
"ai c #8c8274",
"aj c #4c4634",
"ak c #ecc2ac",
"al c #8c765c",
"am c #7c7264",
"an c #e49a7c",
"ao c #6c4e34",
"ap c #fc9a2c",
"aq c #4c4a4c",
"ar c #ccbea4",
"as c #fcf6dc",
"at c #3c3a3c",
"au c #949294",
"av c #fceebc",
"aw c #fcaa7c",
"ax c #ecdac8",
"ay c #0c0604",
"az c #fc8204",
"aA c #847664",
"aB c #e4d6c4",
"aC c #fcd2ac",
"aD c #1c1a14",
"aE c #342e2c",
"aF c #240e04",
"aG c #2c2e2c",
"aH c #fcbe7c",
"aI c #fc8e14",
"aJ c #fc7a14",
"aK c #944604",
"aL c #7c3e14",
"aM c #fcfadc",
"aN c #645244",
"aO c #bcb6b4",
"aP c #bc5604",
"aQ c #7c522c",
"aR c #cc8264",
"aS c #dccab0",
"aT c #ac9a84",
"aU c #f4e2cc",
"aV c #a45e3c",
"aW c #9c5634",
"aX c #fca634",
"aY c #c4aa89",
"aZ c #a44e07",
"a0 c #b4b6b4",
"a1 c #c4baa9",
"a2 c #a4967c",
"a3 c #b4aea4",
"a4 c #d4c6a8",
"a5 c #5c4a34",
"a6 c #bcae94",
"a7 c #845a2c",
"a8 c #948a7c",
"a9 c #c4b299",
"b. c #b4a690",
"b# c #6c6658",
"ba c #fcd6b4",
"bb c #2c261d",
"bc c #fcf6f0",
"bd c #fcb694",
"be c #fc9624",
"bf c #646664",
"bg c #747674",
"bh c #eceadc",
"bi c #545654",
"bj c #b49e7c",
"bk c #6c6e6c",
"bl c #fc8e04",
"bm c #fcb66c",
"bn c #7c7e7c",
"bo c #5c5e5c",
"bp c #8c8674",
"bq c #fc8604",
"br c #bc5a04",
"bs c #fca23c",
"bt c #443e3c",
"bu c #a4927c",
"bv c #b4aaa4",
"bw c #746a64",
"bx c #342a24",
"by c #fcfafc",
"bz c #2c2a24",
"bA c #a49a8c",
"bB c #bcbabc",
"bC c #9c8e7c",
"bD c #8c7e6c",
"bE c #ccbaa4",
"bF c #fcd2bc",
"bG c #fcb294",
/* pixels */
"#Gbi#G.#bnbg.t.Zbfbf.hbo#G.Caqaq.c.C.C.C.C.C.C.C.C.C.C.Cbi#Gbi#G",
"#Gbi#Gbg#8#8.a#8#8#8#8#8#8#8#8.B#8#8#8#8#8#8#8#8#8#8#8.C#Gbi#Gbi",
"bi#Gbi#n#8#T#T#T#T#T#T#T#T#T#TbB#T#T#T#T#T#T#T#T#T#T#8aq#6afbm#z",
"#Gbi#Gbk#8#T#T#T#T#T#T#T#T#T#TbB#T#T#T#T#T#T#T#T#T#T#8#6af#aavaX",
"bi#Gbibk#8#T#T#T#T#T#T#T#T#T#TbB#T#T#T#T#T#T#T#T#T#T#6af#a##aX#.",
"#Gbi#Gbk#8#T#T#T#T#T#T#T#T#T#TbB#T#T#T#T#T#T#T#T#T.3af#a.S.e#.bq",
"#Gbi#G.Z#8#T#T#T#T#T#T#T#T#T#TbB#T#T#T#T#T#T#T#TaQaf#a#R.e#eazbq",
"bi#GbibkaubBbBbBbBbBbBbBbBbBbBbBbBbBbBbBbBbBbBa7af#aba.e#eazbq.M",
"#Gbi#G.Z#8#T#T#T#T#T#T#T#T#T#TbB#T#T#T#T#T#T#Vaf#ababs#ebqbq#.az",
"#Gbi#Gbf#8#T#T#T#T#T#T#T#T#T#TbB#T#T#Tby#T#saf#a#Kap#ebqbqbl#Q.f",
"bi#Gbi.Z#8#T#T#T#T#T#T#T#T#T#TbB#T#T#T#T.Naf#a.z#N#ebqbqbl.R.f#l",
"#Gbi#Gbf#8#T#T#T#T#T#T#T#T#T#TbB#T#T#T#1af.EaHbe#ebqbq#..Rbr#B#y",
"bi#Gbibf#8#T#T#T#T#T#T#T#T#T#TbB#T#T.F.7#jawaI#ebqbqbl.R#PaZ.b..",
"#Gbi#GbfaubBbBbBbBbBbBbBbBbBbBbBbBbG#RaMak#m#ebqbqbl#Q#P#B#w.Y.y",
"bi#Gbibf#8#T#T#T#T#T#T#T#T#T#TaObyaC.Wab#Z#2bqbq.M.RaP.p#way.y.y",
"#Gbi#G.h#8#T#T#T#T#T#T#T#T#Tbya0#I#Tad.K#j#2#QaJ.Rbr.p#yaF.y.yat",
"bi#Gbi.h#8#T#T#T#T#T#T#T#Tby.W.saCasba#Za#.G#9#3aPaZaK.Y.y.yat.c",
"#Gbi#Gbo#8#T#T#T#T#T#T#Tby.Wbc#I#T#p#7.8#0a.#O.P.paLay...yatbtaq",
"bi#Gbi.h#8#T#T#T#T#T#Tby.Wbc.DaCadah#W#0aa.O.2.ragaF#h..ataeaq.C",
"#Gbi#GboaubBbBbBbBbBaOa0.sa3bdasahanaRaV.u.Ta5ae#f.Q#S..aeaq.Cbi",
"bi#Gbibo#8#T#T#T#T.Wbcbc.D#HaCbF#uaRaWaQa5ajbt.HbDai#J..aq.Cbibi",
"#Gbi#Gbo#8#T#Tby.W.W.D#H.nbdab#u#Cac.uaN.o..bDaiaia8#i...Cbibi#G",
"bi#Gbibo#8#T#Tbybc.Dbc.n.4#4.8.q#5.r.l..#vbDaia8a2#g#d..bibi#Gbi",
"#Gbi#G#G#8#T.Wbc.D#H.D#X.j.Lao#5#L.H#vaibpbpbCaT.U#oa2..bi#Gbi#G",
"bi#Gbi#G#8.Wbc.D#H.n.4bjajaD#A...#bpai.9bC#E#ga9.V#r.gbb#Gbi#Gbi",
"#Gbi#Gbiaua0.s.s#Fa3bvaG....#vbwb#b#.JbwaA#i.9bC.m.xal.1bi#Gbi#G",
"bi#Gbi#G#8.D#H.4.4#X.v#x#v#qbAb##Y.6b.a6ar.I#r#r.0.i.g.Lbi#Gbi#G",
"bi#Gbibi#8.D.4.4#X#c.vax.X.AbAamb.#D#oa4aS#r.0.0.i.i#M#A#Gbi#Gbi",
"#Gbi#G.C#8.n.4#X#X.daUaBaS.wa6aiar#raS.0#U#U.0.i.0#r#Mbb#Gbi#Gbi",
"bi#Gbiaq#8.4#Xbh.v#c.d#kaB.Xa4buaS#U#t#U#U.0.0#r.i.i#Mbbbi#Gbi#G",
"#Gbi#Gae.a.a.5a1bE.w.w.w#ba6.U#iaYaYaY.k.g.g.g#M#M#M#M.Lbi#Gbi#G",
"bi#Gbi.HbxaEbxaEbz.LaEbzbzbbbzbbbbbxbb.Lbbbb.1.Lbb.1#Aay#Gbi#Gbi"
};
